<svg t="1695824754795" class="icon" viewBox="0 0 1024 1024" version="1.1" xmlns="http://www.w3.org/2000/svg" p-id="5764"
     width="32" height="32">
  <path
    d="M473.513161 1.4079V0h76.730533v423.969792a95.99316 95.99316 0 0 1-38.397264 183.986891 95.929165 95.929165 0 0 1-38.333269-183.986891V291.179253a223.984041 223.984041 0 1 0-31.037788 433.761095 223.728059 223.728059 0 0 0 259.181533-94.329279 224.176027 224.176027 0 0 0-28.989935-274.540439l67.323204-68.34713a320.233183 320.233183 0 0 1 41.725027 395.683807 319.529234 319.529234 0 0 1-375.589239 130.422708 319.977202 319.977202 0 0 1 67.387198-619.603854V97.785033a415.71438 415.71438 0 0 0-373.797367 360.870288 415.970362 415.970362 0 0 0 269.868772 444.128356 415.330408 415.330408 0 0 0 492.060941-166.260154 416.290339 416.290339 0 0 0-54.396125-517.083158l67.387199-68.34713a512.347495 512.347495 0 0 1 67.003226 638.290521 511.195577 511.195577 0 0 1-608.468646 202.225592A511.963523 511.963523 0 0 1 5.386515 439.968652 511.643545 511.643545 0 0 1 473.513161 1.4079z"
    fill="#4792FF" p-id="5765"></path>
</svg>
